<svg xmlns="http://www.w3.org/2000/svg" viewBox="0 0 512 512">
  <defs>
    <linearGradient id="bg" x1="0" y1="0" x2="1" y2="1">
      <stop offset="0%" stop-color="#6C5CE7"/>
      <stop offset="100%" stop-color="#a29bfe"/>
    </linearGradient>
  </defs>
  <rect width="512" height="512" rx="96" fill="url(#bg)"/>
  <!-- Castle towers -->
  <rect x="120" y="140" width="60" height="200" rx="4" fill="#ffeaa7"/>
  <rect x="226" y="100" width="60" height="240" rx="4" fill="#ffeaa7"/>
  <rect x="332" y="140" width="60" height="200" rx="4" fill="#ffeaa7"/>
  <!-- Tower tops (crenellations) -->
  <rect x="112" y="120" width="20" height="30" rx="2" fill="#fdcb6e"/>
  <rect x="140" y="120" width="20" height="30" rx="2" fill="#fdcb6e"/>
  <rect x="168" y="120" width="20" height="30" rx="2" fill="#fdcb6e"/>
  <rect x="218" y="80" width="20" height="30" rx="2" fill="#fdcb6e"/>
  <rect x="246" y="80" width="20" height="30" rx="2" fill="#fdcb6e"/>
  <rect x="274" y="80" width="20" height="30" rx="2" fill="#fdcb6e"/>
  <rect x="324" y="120" width="20" height="30" rx="2" fill="#fdcb6e"/>
  <rect x="352" y="120" width="20" height="30" rx="2" fill="#fdcb6e"/>
  <rect x="380" y="120" width="20" height="30" rx="2" fill="#fdcb6e"/>
  <!-- Castle wall -->
  <rect x="160" y="240" width="192" height="100" rx="4" fill="#ffeaa7"/>
  <!-- Door -->
  <rect x="226" y="280" width="60" height="60" rx="30 30 0 0" fill="#6C5CE7"/>
  <!-- Windows -->
  <circle cx="200" cy="270" r="12" fill="#74b9ff"/>
  <circle cx="312" cy="270" r="12" fill="#74b9ff"/>
  <!-- Characters -->
  <text x="170" y="410" font-size="56" font-family="sans-serif" font-weight="bold" fill="#fd79a8">&#x1F478;</text>
  <text x="290" y="410" font-size="56" font-family="sans-serif" font-weight="bold" fill="#74b9ff">&#x1F466;</text>
  <!-- Title -->
  <text x="256" y="470" font-size="36" font-family="sans-serif" font-weight="bold" fill="white" text-anchor="middle">СК</text>
</svg>
